HIERARCHY
ROOT Hips
{
	OFFSET 0.00000 0.00000 0.00000
	CHANNELS 6 Xposition Yposition Zposition Zrotation Yrotation Xrotation 
	JOINT LHipJoint
	{
		OFFSET 0 0 0
		CHANNELS 3 Zrotation Yrotation Xrotation
		JOINT LeftHip
		{
			OFFSET 1.62964 -1.40469 0.78906
			CHANNELS 3 Zrotation Yrotation Xrotation
			JOINT LeftKnee
			{
				OFFSET 2.29640 -6.30932 0.00000
				CHANNELS 3 Zrotation Yrotation Xrotation
				JOINT LeftAnkle
				{
					OFFSET 2.29451 -6.30412 0.00000
					CHANNELS 3 Zrotation Yrotation Xrotation
					JOINT LeftToe
					{
						OFFSET 0.03611 -0.09921 1.56387
						CHANNELS 3 Zrotation Yrotation Xrotation
						End Site
						{
							OFFSET 0.00000 -0.00000 0.80291
						}
					}
				}
			}
		}
	}
	JOINT RHipJoint
	{
		OFFSET 0 0 0
		CHANNELS 3 Zrotation Yrotation Xrotation
		JOINT RightHip
		{
			OFFSET -1.73712 -1.40469 0.78906
			CHANNELS 3 Zrotation Yrotation Xrotation
			JOINT RightKnee
			{
				OFFSET -2.28137 -6.26801 0.00000
				CHANNELS 3 Zrotation Yrotation Xrotation
				JOINT RightAnkle
				{
					OFFSET -2.28681 -6.28298 0.00000
					CHANNELS 3 Zrotation Yrotation Xrotation
					JOINT RightToe
					{
						OFFSET -0.15927 -0.43759 1.61103
						CHANNELS 3 Zrotation Yrotation Xrotation
						End Site
						{
							OFFSET -0.00000 -0.00000 0.84630
						}
					}
				}
			}
		}
	}
	JOINT lowerback
	{
		OFFSET 0 0 0
		CHANNELS 3 Zrotation Yrotation Xrotation
		JOINT Chest
		{
			OFFSET -0.04227 2.04338 -0.00225
			CHANNELS 3 Zrotation Yrotation Xrotation
			JOINT Chest2
			{
				OFFSET -0.02148 2.04482 -0.04273
				CHANNELS 3 Zrotation Yrotation Xrotation
				JOINT lowerneck
				{
					OFFSET 0 0 0
					CHANNELS 3 Zrotation Yrotation Xrotation
					JOINT Neck
					{
						OFFSET 0.09180 1.44629 0.19359
						CHANNELS 3 Zrotation Yrotation Xrotation
						JOINT Head
						{
							OFFSET 0.00887 1.40645 0.14750
							CHANNELS 3 Zrotation Yrotation Xrotation
							End Site
							{
								OFFSET -0.00669 1.50671 0.03707
							}
						}
					}
				}
				JOINT LeftCollar
				{
					OFFSET 0 0 0
					CHANNELS 3 Zrotation Yrotation Xrotation
					JOINT LeftShoulder
					{
						OFFSET 2.17674 1.86763 -0.06520
CHANNELS 3 Zrotation Xrotation Yrotation
						JOINT LeftElbow
						{
OFFSET 0 -4.657760 0.000000
CHANNELS 3 Zrotation Xrotation Yrotation
							JOINT LeftWrist
							{
OFFSET 0 -3.555390 0.000000
CHANNELS 3 Zrotation Xrotation Yrotation
								JOINT lhand
								{
									OFFSET 0 0 0
CHANNELS 3 Zrotation Xrotation Yrotation
									JOINT LFingers
									{
OFFSET 0 -0.707260 0.000000
CHANNELS 3 Zrotation Xrotation Yrotation
										End Site
										{
OFFSET 0 -0.570220 0.000000
										}
									}
								}
								JOINT LThumb
								{
OFFSET 0 0.000000 0.000000
CHANNELS 3 Zrotation Xrotation Yrotation
									End Site
									{
OFFSET 0 -0.578920 0.578920
									}
								}
							}
						}
					}
				}
				JOINT RightCollar
				{
					OFFSET 0 0 0
					CHANNELS 3 Zrotation Yrotation Xrotation
					JOINT RightShoulder
					{
						OFFSET -2.80694 1.55459 -0.32496
CHANNELS 3 Zrotation Xrotation Yrotation
						JOINT RightElbow
						{
OFFSET 0 -4.719250 -0.000000
CHANNELS 3 Zrotation Xrotation Yrotation
							JOINT RightWrist
							{
OFFSET 0 -3.569900 0.000000
CHANNELS 3 Zrotation Xrotation Yrotation
								JOINT rhand
								{
									OFFSET 0 0 0
CHANNELS 3 Zrotation Xrotation Yrotation
									JOINT RFingers
									{
OFFSET 0 -0.507760 0.000000
CHANNELS 3 Zrotation Xrotation Yrotation
										End Site
										{
OFFSET 0 -0.409370 0.000000
										}
									}
								}
								JOINT RThumb
								{
OFFSET 0 0.000000 0.000000
CHANNELS 3 Zrotation Xrotation Yrotation
									End Site
									{
OFFSET 0 -0.415620 0.415620
									}
								}
							}
						}
					}
				}
			}
		}
	}
}
MOTION
Frames: 4
Frame Time: 0.008333333333333333
9.718290 15.298925 10.086830 178.297912 -4.438584 -145.926025 0.000000 0.000000 0.000000 -7.175244 -26.458774 -55.793270 7.805580 15.972307 51.855933 0.988574 -9.935828 -18.039344 2.085045 -9.034844 -25.908836 0.000000 0.000000 0.000000 12.653066 19.293271 -51.586787 -6.611922 -14.994318 47.387506 -4.004481 4.643829 -36.967978 -2.700923 10.194159 -29.607957 -6.472319 -1.406993 -17.915264 -1.402389 -0.912863 -2.244003 1.917526 -0.797014 7.682593 4.733159 9.942720 -5.986452 24.463529 7.490312 10.675515 7.143206 3.944824 3.475806 0.000000 0.000000 0.000000 7.965826 1.042643 -24.654913 16.395073 -26.053377 3.817869 21.798571 -3.274170 12.864684 0.000000 0.000000 0.000000 -7.125000 0.000000 0.000000 -3.795260 16.180981 -2.592790 0.000000 0.000000 0.000000 -1.262196 4.149497 26.064753 -30.569336 -41.375975 -11.784328 -12.829728 2.628803 51.013838 0.000000 0.000000 0.000000 7.125000 0.000000 0.000000 59.049631 75.337295 -45.356579
9.720752 15.226174 10.099282 178.280015 -4.718245 -145.873102 0.000000 0.000000 0.000000 -7.024462 -26.408864 -56.793990 8.194023 16.256405 53.252655 0.994505 -10.135446 -18.119260 2.302252 -9.452541 -27.234507 0.000000 0.000000 0.000000 12.627089 19.190985 -52.436035 -6.986928 -15.316591 48.817402 -4.122655 4.725376 -37.523825 -2.669934 10.140472 -29.432925 -6.397715 -1.332951 -17.717697 -1.446426 -0.833413 -2.225587 1.850743 -0.750471 7.586888 5.286635 10.152199 -5.843069 24.052595 7.793049 10.703174 6.925940 4.101321 3.476517 0.000000 0.000000 0.000000 8.012737 0.890822 -24.763255 16.410231 -26.073700 3.824487 22.043154 -3.213178 12.826952 0.000000 0.000000 0.000000 -7.125000 0.000000 0.000000 -3.624300 16.196916 -2.474828 0.000000 0.000000 0.000000 -1.371406 4.127911 26.462910 -30.969395 -41.708636 -12.049914 -13.322316 2.899737 51.554942 0.000000 0.000000 0.000000 7.125000 0.000000 0.000000 60.750760 75.738180 -47.275912
9.722898 15.152134 10.110258 178.247866 -4.967676 -145.848716 0.000000 0.000000 0.000000 -6.927922 -26.343670 -57.748289 8.585016 16.530376 54.639346 1.007307 -10.270146 -18.249085 2.624484 -10.055546 -29.161726 0.000000 0.000000 0.000000 12.571152 19.110196 -53.266230 -7.379569 -15.640002 50.290032 -4.251444 4.838852 -38.118713 -2.625203 10.061497 -29.176756 -6.337205 -1.249819 -17.483658 -1.515506 -0.742213 -2.215419 1.768180 -0.698144 7.461121 5.850612 10.350669 -5.710020 23.655494 8.074802 10.721162 6.713136 4.246665 3.480673 0.000000 0.000000 0.000000 8.098751 0.771318 -24.900005 16.446076 -26.121684 3.840245 22.223183 -3.176209 12.641764 0.000000 0.000000 0.000000 -7.125000 0.000000 0.000000 -3.491772 16.376612 -2.370090 0.000000 0.000000 0.000000 -1.454685 4.142977 26.876959 -31.412589 -42.072408 -12.345855 -13.435728 2.918115 52.329669 0.000000 0.000000 0.000000 7.125000 0.000000 0.000000 63.595928 76.059565 -50.155082
9.723738 15.077148 10.119701 178.182813 -5.204666 -145.867603 0.000000 0.000000 0.000000 -6.887771 -26.318279 -58.634345 8.981282 16.794927 56.024145 1.017450 -10.481745 -18.369398 2.884558 -10.504485 -30.627736 0.000000 0.000000 0.000000 12.472033 19.000515 -54.073662 -7.788076 -15.960302 51.794305 -4.394701 5.074933 -38.753719 -2.539724 9.909636 -28.684798 -6.292786 -1.169167 -17.200081 -1.610008 -0.651418 -2.191006 1.667452 -0.645681 7.323949 6.416437 10.535617 -5.628809 23.281472 8.325362 10.728646 6.511331 4.378170 3.495782 0.000000 0.000000 0.000000 8.209692 0.649605 -25.023186 16.515187 -26.214158 3.870744 22.246756 -3.213073 12.410510 0.000000 0.000000 0.000000 -7.125000 0.000000 0.000000 -3.465261 16.621576 -2.333507 0.000000 0.000000 0.000000 -1.504700 4.169628 27.290783 -31.907485 -42.472871 -12.678397 -13.056740 2.644541 53.255036 0.000000 0.000000 0.000000 7.125000 0.000000 0.000000 67.379379 76.204572 -53.740715
